<svg xmlns="http://www.w3.org/2000/svg" width="634.667" height="634.667" viewBox="0 0 476 476" preserveAspectRatio="xMidYMid meet" xmlns:v="https://vecta.io/nano"><path d="M328.3 4c-1.8 1-3.9 2.9-4.7 4.2-2.8 4.3-20.6 60-20.6 64.4 0 4.3 3.5 9.3 7.7 11.1 4.7 1.9 10.2.5 13.3-3.4 1.1-1.4 4.8-11.2 8.1-21.7l10-31c2.2-6.5 3.9-12.8 3.9-14C346 8.5 339.1 2 333.6 2c-1.2 0-3.5.9-5.3 2zM20.7 45.8L9 57.5l27.4 27.4 27.5 27.4-2.8 4.1c-1.5 2.3-6.9 14.7-12 27.6L23 210.5c-9.2 22.6-11.8 38-8.4 49.4 1.9 6.6 2.5 7.7 26.8 49 7.4 12.6 15 20.5 24.3 25.3 9.6 5 15.3 6.3 26.8 6.3 11.3 0 14.8-1.2 14-4.8-.3-1.2-1-9-1.5-17.2l-2.2-31c-1.4-17.8-1.5-32.5-.4-37 .4-1.7 1.9-5.4 3.2-8.2 9.2-20.2 29.4-31.6 50.1-28.3 11.8 1.9 14.3 3.6 34 23.3 10.1 10 18.3 18.5 18.3 18.9 0 .8-3.9 6.7-21.9 32.8-7.6 11-10.3 14.1-11.6 12.9-.3-.3-1-10-1.6-21.5-.5-11.4-1.4-22.6-1.9-24.7-3.2-14.3-20.6-21.4-33.5-13.6-10 6.1-12.5 13.2-10.7 31.1.7 6.8 1.2 15 1.2 18.3s.4 11.4 1 18l2 32.5c3.1 59.1 6 72.4 18.8 84.8 7.8 7.6 56.7 40.3 65.7 44 10.4 4.3 20.4 5.4 32.5 3.8 11.7-1.6 24.2-7.4 33-15.4 5.9-5.3 8.8-9.1 37-49.7l16.8-23.7c1.3-1.6 4.9 1.9 42.5 39.8l41.1 41.5 11.8-11.8c6.5-6.5 11.8-12.1 11.8-12.5C442 442 34 34 33.2 34c-.4 0-6 5.3-12.5 11.8zM103.4 151l5.9 6.1-3.4 2.1c-10 6.2-20.2 11.8-21.5 11.8-1.5 0-1.9-2.1-.5-3.5.7-.8 4.5-10 9.2-22.3 1.2-3 2.8-2.1 10.3 5.8zm273.3-80.3l-31.8 32.7c-4.2 5.6-4 10.7.4 15.1 1.9 1.9 4.6 3.7 6 4 6.3 1.6 4.5 3.2 55.3-47 16.7-16.5 18.3-19 15.7-25.5-2.1-5.4-5.9-8-11.7-8h-5l-28.9 28.7zM213 96.8c-2.5 1-7.9 3.9-12 6.3-4.1 2.5-12.1 7.2-17.8 10.5-5.6 3.2-10.1 6.3-10 6.9.6 2.2 59 58.9 59.6 57.9 7.4-11.2 20.7-28.5 24.5-32 5.6-5 15.2-9.9 21.5-10.9 6.5-1.1 6.9-4.8 1.1-12.1-3.6-4.6-7.8-7-13.6-7.9-5.2-.9-9.8.6-18.6 5.7-3.8 2.2-7.1 3.8-7.3 3.5-.3-.2 0-2.4.5-4.8 1.3-5.9-.2-11.8-4.5-16.8-6.2-7.2-15.1-9.6-23.4-6.3zm211.5 29.6l-29.5 9.7c-10 3.1-14 6.9-14 13.2 0 5.4 3.3 10 8.3 11.6 3.7 1.3 8.9-.1 42.7-11.2l16.2-5.1c6.9-2.1 9.3-3.4 11.7-6.2 7-7.9 1.2-19.5-9.6-19.3-2.1 0-13.7 3.3-25.8 7.3zm-89.4 32.3c-6.5 2.2-9.4 4.7-15.3 13.4-5.8 8.6-7.8 10.2-7.8 6.5 0-3.9-3.5-10.8-7.1-14.3-7.2-6.8-17-8.2-26.5-3.7-5 2.4-6.3 3.8-15.9 17.2l-11.6 17c-1.2 2.1 2.2 5.7 62.2 66l64.4 63.5c1.1-.4 6.5-8.2 8.9-13s2.1-15.2-.6-20.9c-3.9-8.3-12.8-13-22.9-12.1-3.3.3-5.9.1-5.9-.4s4.8-7.5 10.6-15.6c5.9-8.2 11.5-16.6 12.5-18.8 3.9-8.5 1.4-19.9-5.7-26.5-5.1-4.7-10.9-6.4-18.6-5.6-6.7.7-6.7.2-.8-7.6 12.3-16.3 13.9-25.3 6.4-37-4.8-7.5-16.9-11.3-26.3-8.1z"/></svg>