<svg xmlns="http://www.w3.org/2000/svg" viewBox="0 0 304.377 304.377" xmlns:v="https://vecta.io/nano"><path d="M122.384 152.026l37.884-54.628a30.16 30.16 0 0 1 22.135-12.838 13.4 13.4 0 0 0-1.76-5.5 13.48 13.48 0 0 0-18.429-4.861l-9.053 5.274c2.12-3.984 2.205-8.935-.234-13.121a13.48 13.48 0 0 0-18.43-4.861L53.459 108.7l8.958-22.765c2.726-6.927-.68-14.752-7.607-17.475a13.48 13.48 0 0 0-17.475 7.606l-22.99 58.428c-5.595 14.546-9.317 25.256-2.266 37.36l16.269 27.926c8.311 14.265 25.056 20.623 40.277 16.456l-3.003-48.307c-1.034-16.627 11.584-30.926 28.215-31.959 12.124-.755 23.135 5.803 28.547 16.056zm98.77-77.018c2.931 2.929 7.678 2.928 10.607 0l36.723-36.723a7.5 7.5 0 0 0 0-10.607c-2.93-2.928-7.678-2.928-10.607 0L221.154 64.4c-2.929 2.93-2.929 7.678 0 10.608zm-21.699-22.885c3.939 1.255 8.163-.918 9.422-4.871l11.932-37.473a7.5 7.5 0 0 0-4.871-9.422c-3.948-1.262-8.165.924-9.422 4.871l-11.932 37.473a7.5 7.5 0 0 0 4.871 9.422zm96.35 28.102a7.5 7.5 0 0 0-9.422-4.871L248.91 87.285c-4.236 1.349-6.492 6.151-4.48 10.374a29.68 29.68 0 0 1 .895 1.428c1.906 2.398 5.107 3.456 8.136 2.491l37.473-11.932a7.5 7.5 0 0 0 4.871-9.421zm-53.427 99.18c-4.431-3.073-9.979-3.467-14.679-1.424l14.322-20.653a15.15 15.15 0 0 0-3.815-21.077c-4.432-3.074-9.98-3.467-14.68-1.424l8.225-11.86a15.15 15.15 0 0 0-3.815-21.078 15.15 15.15 0 0 0-21.077 3.815l-6.71 9.675c.264-5.065-2.004-10.146-6.479-13.249a15.15 15.15 0 0 0-21.077 3.815l-60.064 86.611-1.706-27.44c-.519-8.348-7.707-14.697-16.056-14.176a15.15 15.15 0 0 0-14.176 16.056l4.378 70.427c1.313 17.867 2.524 30.148 15.46 39.118l29.846 20.698c6.955 4.823 14.918 7.137 22.802 7.137 12.72 0 25.239-6.02 33.021-17.241l60.094-86.654c4.768-6.872 3.06-16.309-3.814-21.076z"/></svg>