<?xml version="1.0" standalone="no"?>
<!DOCTYPE svg PUBLIC "-//W3C//DTD SVG 20010904//EN"
 "http://www.w3.org/TR/2001/REC-SVG-20010904/DTD/svg10.dtd">
<svg version="1.0" xmlns="http://www.w3.org/2000/svg"
 width="476.000000pt" height="476.000000pt" viewBox="0 0 476.000000 476.000000"
 preserveAspectRatio="xMidYMid meet">
<metadata>
Created by potrace 1.13, written by Peter Selinger 2001-2015
</metadata>
<g transform="translate(0.000000,476.000000) scale(0.100000,-0.100000)"
fill="#000000" stroke="none">
<path d="M3283 4720 c-18 -10 -39 -29 -47 -42 -28 -43 -206 -600 -206 -644 0
-43 35 -93 77 -111 47 -19 102 -5 133 34 11 14 48 112 81 217 34 105 79 244
100 310 22 65 39 128 39 140 0 51 -69 116 -124 116 -12 0 -35 -9 -53 -20z"/>
<path d="M207 4302 l-117 -117 274 -274 275 -274 -28 -41 c-15 -23 -69 -147
-120 -276 -155 -397 -252 -644 -261 -665 -92 -226 -118 -380 -84 -494 19 -66
25 -77 268 -490 74 -126 150 -205 243 -253 96 -50 153 -63 268 -63 113 0 148
12 140 48 -3 12 -10 90 -15 172 -6 83 -16 222 -22 310 -14 178 -15 325 -4 370
4 17 19 54 32 82 92 202 294 316 501 283 118 -19 143 -36 340 -233 101 -100
183 -185 183 -189 0 -8 -39 -67 -219 -328 -76 -110 -103 -141 -116 -129 -3 3
-10 100 -16 215 -5 114 -14 226 -19 247 -32 143 -206 214 -335 136 -100 -61
-125 -132 -107 -311 7 -68 12 -150 12 -183 0 -33 4 -114 10 -180 5 -66 14
-212 20 -325 31 -591 60 -724 188 -848 78 -76 567 -403 657 -440 104 -43 204
-54 325 -38 117 16 242 74 330 154 59 53 88 91 370 497 84 121 159 228 168
237 13 16 49 -19 425 -398 l411 -415 118 118 c65 65 118 121 118 125 0 8
-4080 4088 -4088 4088 -4 0 -60 -53 -125 -118z m827 -1052 l59 -61 -34 -21
c-100 -62 -202 -118 -215 -118 -15 0 -19 21 -5 35 7 8 45 100 92 223 12 30 28
21 103 -58z"/>
<path d="M3767 4053 c-159 -159 -302 -306 -318 -327 -42 -56 -40 -107 4 -151
19 -19 46 -37 60 -40 63 -16 45 -32 553 470 167 165 183 190 157 255 -21 54
-59 80 -117 80 l-50 0 -289 -287z"/>
<path d="M2130 3792 c-25 -10 -79 -39 -120 -63 -41 -25 -121 -72 -178 -105
-56 -32 -101 -63 -100 -69 6 -22 590 -589 596 -579 74 112 207 285 245 320 56
50 152 99 215 109 65 11 69 48 11 121 -36 46 -78 70 -136 79 -52 9 -98 -6
-186 -57 -38 -22 -71 -38 -73 -35 -3 2 0 24 5 48 13 59 -2 118 -45 168 -62 72
-151 96 -234 63z"/>
<path d="M4245 3496 c-121 -41 -254 -84 -295 -97 -100 -31 -140 -69 -140 -132
0 -54 33 -100 83 -116 37 -13 89 1 427 112 41 13 114 36 162 51 69 21 93 34
117 62 70 79 12 195 -96 193 -21 0 -137 -33 -258 -73z"/>
<path d="M3351 3173 c-65 -22 -94 -47 -153 -134 -58 -86 -78 -102 -78 -65 0
39 -35 108 -71 143 -72 68 -170 82 -265 37 -50 -24 -63 -38 -159 -172 -57 -81
-110 -157 -116 -170 -12 -21 22 -57 622 -660 349 -351 639 -636 644 -635 11 4
65 82 89 130 24 48 21 152 -6 209 -39 83 -128 130 -229 121 -33 -3 -59 -1 -59
4 0 5 48 75 106 156 59 82 115 166 125 188 39 85 14 199 -57 265 -51 47 -109
64 -186 56 -67 -7 -67 -2 -8 76 123 163 139 253 64 370 -48 75 -169 113 -263
81z"/>
</g>
</svg>
